<svg xmlns="http://www.w3.org/2000/svg" viewBox="0 0 56 56">
  <rect width="56" height="56" rx="16" fill="#000"/>
  <g transform="translate(14 14)" fill="#fff">
    <path d="M16.4 12.7c0-2.3 1.9-3.4 2-3.5-1.1-1.6-2.8-1.8-3.4-1.8-1.4-.2-2.8.9-3.5.9s-1.8-.8-3-.8c-1.5 0-3 .9-3.8 2.3-1.6 2.8-.4 7 1.2 9.3.8 1.1 1.7 2.3 2.9 2.3 1.2 0 1.6-.7 3-.7s1.8.7 3 .7 2-.1 2.9-2.2c1-.1.8-2.3 1.7-3.4-.7-.3-2-1.2-2-2.1zM14.8 6.4c.6-.8 1.1-1.8.9-2.9-1 .1-2.1.7-2.7 1.5-.6.7-1.1 1.8-.9 2.8 1 .1 2.1-.6 2.7-1.4z"/>
  </g>
</svg>
